<?xml version="1.0" standalone="no"?>
<!DOCTYPE svg PUBLIC "-//W3C//DTD SVG 20010904//EN"
 "http://www.w3.org/TR/2001/REC-SVG-20010904/DTD/svg10.dtd">
<svg version="1.0" xmlns="http://www.w3.org/2000/svg"
 width="512.000000pt" height="512.000000pt" viewBox="0 0 512.000000 512.000000"
 preserveAspectRatio="xMidYMid meet">

<g transform="translate(0.000000,512.000000) scale(0.100000,-0.100000)"
fill="#000000" stroke="none">
<path d="M0 2560 l0 -2560 2560 0 2560 0 0 2560 0 2560 -2560 0 -2560 0 0
-2560z m2144 1594 c9 -8 16 -27 16 -42 1 -37 33 -183 45 -203 13 -22 128 -89
152 -89 10 0 32 9 48 20 17 11 37 20 45 20 8 0 32 9 53 20 68 36 105 23 147
-51 8 -15 38 -66 65 -114 28 -47 56 -96 62 -108 7 -12 13 -38 13 -58 0 -36 1
-35 -99 -122 -8 -6 -33 -24 -55 -39 -41 -28 -41 -28 -219 -28 -176 0 -178 0
-202 25 -14 13 -25 30 -25 38 0 24 -84 99 -140 125 -243 112 -515 -161 -396
-397 40 -77 81 -117 163 -159 40 -20 73 -41 73 -46 0 -13 -73 -80 -193 -178
-92 -74 -100 -78 -120 -65 -39 25 -67 27 -100 6 -18 -10 -41 -19 -52 -19 -11
0 -31 -7 -44 -17 -13 -9 -42 -19 -63 -23 -33 -6 -44 -4 -68 17 -16 13 -32 34
-36 46 -3 12 -12 29 -19 37 -7 8 -30 47 -50 85 -20 39 -44 78 -52 87 -8 9 -18
38 -21 64 -5 45 -3 48 36 83 22 20 52 45 67 56 80 59 85 68 85 150 0 83 -6 94
-87 153 -123 91 -127 108 -55 233 15 26 44 78 66 115 71 125 108 147 178 104
18 -11 40 -20 48 -20 8 0 32 -9 53 -20 46 -25 67 -25 98 -2 13 10 37 24 52 32
16 8 34 23 40 35 13 24 46 168 47 207 1 55 13 58 230 58 167 0 201 -2 214 -16z
m427 -943 c35 -32 73 -67 84 -78 11 -10 53 -45 92 -78 62 -51 73 -65 73 -91 0
-26 -9 -39 -47 -70 -25 -22 -56 -49 -67 -61 -11 -13 -23 -23 -27 -23 -12 0
-124 -112 -121 -121 1 -5 -3 -9 -8 -9 -6 0 -16 -11 -22 -25 -12 -27 -60 -35
-74 -13 -5 7 -8 49 -8 93 l-1 80 -119 3 c-67 1 -126 7 -133 14 -16 13 -18 229
-3 259 10 17 22 19 135 19 l125 0 0 61 c0 68 12 99 39 99 9 0 46 -27 82 -59z
m-463 -303 c5 -7 13 -43 16 -79 l7 -66 121 -7 c97 -5 124 -10 134 -24 18 -23
19 -253 2 -270 -8 -8 -53 -12 -135 -12 l-123 0 -1 -42 c-2 -63 -12 -100 -30
-111 -13 -8 -24 -3 -53 25 -20 19 -36 40 -36 47 0 6 -3 11 -7 11 -5 0 -29 19
-54 43 -25 23 -76 68 -112 100 -85 74 -88 96 -19 152 69 57 157 140 231 217
29 31 43 34 59 16z m133 -1223 c264 -90 502 -130 764 -130 275 0 470 32 754
125 68 22 128 40 133 40 4 0 8 -103 8 -229 l0 -229 -26 -31 c-73 -87 -343
-159 -684 -182 -432 -29 -914 50 -1041 171 l-39 37 0 231 c0 184 3 232 13 232
7 0 60 -16 118 -35z"/>
</g>
</svg>
